<?xml version="1.0" encoding="utf-8"?>
<!-- Generator: Adobe Illustrator 13.0.0, SVG Export Plug-In . SVG Version: 6.00 Build 14948)  -->
<!DOCTYPE svg PUBLIC "-//W3C//DTD SVG 1.1//EN" "http://www.w3.org/Graphics/SVG/1.1/DTD/svg11.dtd">
<svg version="1.1" xmlns="http://www.w3.org/2000/svg" xmlns:xlink="http://www.w3.org/1999/xlink" x="0px" y="0px" width="299px"
	 height="200px" viewBox="-71.919 -91.856 299 200" enable-background="new -71.919 -91.856 299 200" xml:space="preserve">
<g id="Layer_2">
	<g id="Layer_1_1_">
		<rect x="-293.666" y="-174.167" fill="#FF6347" stroke="#231F20" width="600" height="300"/>
	</g>
</g>
<g id="Layer_1">
	<line fill="none" stroke="#FFFFFF" stroke-width="2" x1="-69.839" y1="-48.675" x2="-69.839" y2="96.45"/>
	<circle fill="none" stroke="#FFFFFF" stroke-width="0.75" cx="-43.623" cy="-67.714" r="7.49"/>
	<circle fill="none" stroke="#FFFFFF" stroke-width="0.75" cx="-17.406" cy="-67.714" r="7.49"/>
	<circle fill="none" stroke="#FFFFFF" stroke-width="0.75" cx="8.187" cy="-67.714" r="7.49"/>
	<path fill="none" stroke="#FFFFFF" stroke-width="0.75" d="M226.03-57.102H37.146c-4.273,0-7.737-3.354-7.737-7.491v-5.618
		c0-4.136,3.464-7.49,7.737-7.49h188.24"/>
	<g>
		<rect x="7.705" y="-11.942" fill="#FFFFFF" width="1.293" height="1.292"/>
		<rect x="8.998" y="-10.648" fill="#FFFFFF" width="1.294" height="1.292"/>
		<rect x="6.411" y="-13.237" fill="#FFFFFF" width="1.294" height="1.294"/>
		<rect x="5.117" y="-14.531" fill="#FFFFFF" width="1.292" height="1.292"/>
		<rect x="3.825" y="-15.823" fill="#FFFFFF" width="1.292" height="1.292"/>
		<rect x="14.173" y="-5.477" fill="#FFFFFF" width="1.294" height="1.297"/>
		<polygon fill="#FFFFFF" points="12.877,-6.771 12.877,-5.477 14.173,-5.477 14.173,-6.771 12.879,-6.771 12.879,-8.063 
			11.587,-8.063 11.587,-6.771 		"/>
		<rect x="10.292" y="-9.356" fill="#FFFFFF" width="1.293" height="1.294"/>
		<rect x="8.998" y="2.285" fill="#FFFFFF" width="1.294" height="2.586"/>
		<polygon fill="#FFFFFF" points="2.531,-15.823 3.825,-15.823 3.825,-17.117 2.531,-17.117 2.531,-18.412 1.236,-18.412 
			1.236,3.581 3.825,3.581 3.825,2.285 2.531,2.285 		"/>
		<rect x="7.705" y="-0.301" fill="#FFFFFF" width="1.293" height="2.586"/>
		<polygon fill="#FFFFFF" points="16.759,-1.593 16.759,-4.18 15.467,-4.18 15.467,-2.888 10.292,-2.888 10.292,-0.301 
			11.587,-0.301 11.587,-1.593 		"/>
		<polygon fill="#FFFFFF" points="12.877,2.285 12.877,4.874 10.292,4.874 10.292,6.167 12.879,6.167 12.879,4.874 14.173,4.874 
			14.173,2.285 12.879,2.285 12.879,-0.301 11.587,-0.301 11.587,2.285 		"/>
		<rect x="3.825" y="0.991" fill="#FFFFFF" width="1.292" height="1.292"/>
		<rect x="6.411" y="-1.593" fill="#FFFFFF" width="1.294" height="1.292"/>
		<rect x="5.117" y="-0.301" fill="#FFFFFF" width="1.292" height="1.292"/>
	</g>
	<path fill="none" stroke="#FFFFFF" stroke-width="2" d="M225.094-48.988l-294.933,0.313l0,0V-80.51c0-4.136,3.354-7.49,7.49-7.49
		H226.03"/>
	<g>
		<rect x="169.615" y="89.179" fill="#FFFFFF" width="1.291" height="1.291"/>
		<rect x="170.908" y="90.47" fill="#FFFFFF" width="1.293" height="1.294"/>
		<rect x="168.316" y="87.884" fill="#FFFFFF" width="1.295" height="1.295"/>
		<rect x="167.025" y="86.589" fill="#FFFFFF" width="1.291" height="1.295"/>
		<rect x="165.731" y="85.298" fill="#FFFFFF" width="1.294" height="1.289"/>
		<rect x="176.081" y="95.645" fill="#FFFFFF" width="1.295" height="1.295"/>
		<polygon fill="#FFFFFF" points="174.787,94.35 174.787,95.645 176.081,95.645 176.081,94.35 174.787,94.35 174.787,93.059 
			173.492,93.059 173.492,94.35 		"/>
		<rect x="172.201" y="91.764" fill="#FFFFFF" width="1.291" height="1.295"/>
		<rect x="170.908" y="103.406" fill="#FFFFFF" width="1.293" height="2.586"/>
		<polygon fill="#FFFFFF" points="164.441,85.298 165.731,85.298 165.731,84.003 164.441,84.003 164.441,82.708 163.145,82.708 
			163.145,104.701 165.731,104.701 165.731,103.406 164.441,103.406 		"/>
		<rect x="169.615" y="100.821" fill="#FFFFFF" width="1.291" height="2.585"/>
		<polygon fill="#FFFFFF" points="178.667,99.526 178.667,96.94 177.374,96.94 177.374,98.231 172.201,98.231 172.201,100.821 
			173.492,100.821 173.492,99.526 		"/>
		<polygon fill="#FFFFFF" points="174.787,103.406 174.787,105.992 172.201,105.992 172.201,107.287 174.787,107.287 
			174.787,105.992 176.081,105.992 176.081,103.406 174.787,103.406 174.787,100.821 173.492,100.821 173.492,103.406 		"/>
		<rect x="165.731" y="102.112" fill="#FFFFFF" width="1.294" height="1.294"/>
		<rect x="168.316" y="99.526" fill="#FFFFFF" width="1.295" height="1.295"/>
		<rect x="167.025" y="100.821" fill="#FFFFFF" width="1.291" height="1.289"/>
	</g>
	<defs>
		<filter id="Adobe_OpacityMaskFilter" filterUnits="userSpaceOnUse" x="1.166" y="-18.444" width="161.979" height="101.122">
			<feColorMatrix  type="matrix" values="1 0 0 0 0  0 1 0 0 0  0 0 1 0 0  0 0 0 1 0"/>
		</filter>
	</defs>
	<mask maskUnits="userSpaceOnUse" x="1.166" y="-18.444" width="161.979" height="101.122" id="SVGID_1_">
		<g filter="url(#Adobe_OpacityMaskFilter)">
			
				<linearGradient id="SVGID_2_" gradientUnits="userSpaceOnUse" x1="625.313" y1="-653.2954" x2="282.0044" y2="-232.5879" gradientTransform="matrix(1 0 0 -1 -282.4805 -301.7314)">
				<stop  offset="0" style="stop-color:#FFFFFF"/>
				<stop  offset="1" style="stop-color:#000000"/>
			</linearGradient>
			<rect x="1.166" y="-18.444" fill="url(#SVGID_2_)" width="161.979" height="101.122"/>
		</g>
	</mask>
	
		<linearGradient id="SVGID_3_" gradientUnits="userSpaceOnUse" x1="625.313" y1="-653.2954" x2="282.0044" y2="-232.5879" gradientTransform="matrix(1 0 0 -1 -282.4805 -301.7314)">
		<stop  offset="0" style="stop-color:#FFFFFF"/>
		<stop  offset="1" style="stop-color:#FFFFFF"/>
	</linearGradient>
	<rect x="1.166" y="-18.444" mask="url(#SVGID_1_)" fill="url(#SVGID_3_)" width="161.979" height="101.122"/>
</g>
</svg>
